Coordinates
version=1
nRows=19
nColumns=24
inDegrees=yes

Units are S.I. units (second, meters, Newtons, ...)
Angles are in degrees.

endheader
time	pelvis_tilt	pelvis_list	pelvis_rotation	pelvis_tx	pelvis_ty	pelvis_tz	hip_flexion_r	hip_adduction_r	hip_rotation_r	knee_angle_r	ankle_angle_r	subtalar_angle_r	mtp_angle_r	hip_flexion_l	hip_adduction_l	hip_rotation_l	knee_angle_l	ankle_angle_l	subtalar_angle_l	mtp_angle_l	lumbar_extension	lumbar_bending	lumbar_rotation
      0.96716667	     -1.22781100	     -4.01337148	      2.32932118	     -0.15934373	      1.02420538	      0.33115430	    -10.78794874	      8.96569390	     -1.39954328	     -8.98563843	      9.66490753	     -5.22326792	      1.28171729	     18.23673884	     -2.23707381	     -1.58015308	      8.50209285	      1.14106512	     -4.10407745	     -8.53416760	     -5.47684837	      2.01731485	      3.32391820
      0.97133333	     -1.24614820	     -3.92495783	      2.25887041	     -0.15364547	      1.02347969	      0.33082342	    -10.80193774	      8.82314388	     -1.47147901	     -9.63785859	      9.95702121	     -4.93157282	      1.34021687	     18.23807212	     -2.09007414	     -1.25846802	      8.32304779	      1.14355859	     -4.12618860	     -8.36680353	     -5.43884617	      1.89786565	      3.33347604
      0.97550000	     -1.20900966	     -3.82447215	      2.21077945	     -0.14795835	      1.02286885	      0.33051025	    -10.88747244	      8.69303192	     -1.42524017	    -10.24679846	     10.06174603	     -5.01665849	      1.35889815	     18.20119808	     -1.93131326	     -0.96798592	      8.03873702	      1.13867665	     -4.10268952	     -8.31451109	     -5.47370703	      1.75811968	      3.33296564
      0.97966667	     -1.19113672	     -3.70624184	      2.15380111	     -0.14223496	      1.02227056	      0.33016734	    -10.89486631	      8.52242727	     -1.50438565	    -10.98908204	     10.30826782	     -4.74762561	      1.45427461	     18.17155822	     -1.75499637	     -0.61946681	      7.71795426	      1.01502947	     -4.28825391	     -8.05018904	     -5.48222554	      1.60147246	      3.32822574
      0.98383333	     -1.13957208	     -3.57715133	      2.11426912	     -0.13650718	      1.02175587	      0.32983779	    -10.94628644	      8.36417604	     -1.47212069	    -11.69631036	     10.35617534	     -4.86928420	      1.47705538	     18.13622814	     -1.56613679	     -0.36312711	      7.28164072	      0.95357162	     -4.31266121	     -7.98906691	     -5.52406259	      1.42637089	      3.32462632
      0.98800000	     -1.11258689	     -3.42710448	      2.06839928	     -0.13074808	      1.02123004	      0.32948431	    -10.91239359	      8.16163933	     -1.56421008	    -12.54075125	     10.56403067	     -4.60890726	      1.61362451	     18.10377267	     -1.35591939	      0.00794613	      6.84574989	      0.71019168	     -4.65037166	     -7.65912771	     -5.53799083	      1.21684607	      3.30031161
      0.99216667	     -1.02225590	     -3.27907291	      2.03778387	     -0.12498288	      1.02083888	      0.32914387	    -10.95227047	      7.98533491	     -1.55582246	    -13.34764767	     10.52189362	     -4.76527963	      3.15906866	     18.01084488	     -1.15135381	      0.33747753	      6.36961376	      0.34620819	     -4.97244232	     -3.87462546	     -5.61800995	      1.01677282	      3.26985530
      0.99633333	     -0.95908299	     -3.10083598	      1.99987570	     -0.11919928	      1.02045121	      0.32875444	    -10.90359606	      7.75244986	     -1.67019358	    -14.28751388	     10.59740857	     -4.59955365	      3.19690134	     17.97482883	     -0.90936656	      0.56494786	      5.77946249	      0.17551280	     -5.14941226	     -3.81361408	     -5.66705705	      0.78109126	      3.26805467
      1.00050000	     -0.85662676	     -2.91483977	      1.96877780	     -0.11340991	      1.02015948	      0.32836635	    -10.88099125	      7.51896676	     -1.76056324	    -15.24952786	     10.59705236	     -4.55949273	      3.26175258	     17.88764104	     -0.66228431	      0.83399690	      5.18405424	     -0.10740026	     -5.45136852	     -3.72820602	     -5.76274897	      0.53424477	      3.24301247
      1.00466667	     -0.77348052	     -2.73840546	      1.94609165	     -0.10762993	      1.01986183	      0.32793998	    -10.79146760	      7.28847189	     -1.89494035	    -16.29773610	     10.57451182	     -4.45806346	      3.38991047	     17.82134349	     -0.42162174	      1.14914153	      4.57517262	     -0.46407166	     -5.88462196	     -3.58552593	     -5.83255344	      0.30522211	      3.20996729
      1.00883333	     -0.65630161	     -2.54716546	      1.92487109	     -0.10184725	      1.01968163	      0.32751035	    -10.73288023	      7.05207171	     -1.97565369	    -17.33480347	     10.38097034	     -4.58491170	      3.41959524	     17.75465675	     -0.16754167	      1.29260866	      3.86465097	     -0.68479806	     -6.03392607	     -3.55458636	     -5.96167592	      0.07641687	      3.20143763
      1.01300000	     -0.55332531	     -2.33776656	      1.90279711	     -0.09603914	      1.01949177	      0.32703626	    -10.58709426	      6.76248740	     -2.21612507	    -18.53486103	     10.35385248	     -4.28430535	      3.64100812	     17.64447773	      0.10669757	      1.67317233	      3.26817060	     -1.21453856	     -6.69845422	     -3.37875570	     -6.04158547	     -0.21372529	      3.13855918
      1.01716667	     -0.44100499	     -2.13067182	      1.88793773	     -0.09023786	      1.01936436	      0.32654212	    -10.43570863	      6.48164599	     -2.42027189	    -19.73918331	     10.13987246	     -4.20732609	      3.95037322	     17.54748327	      0.37938657	      1.97318381	      2.61029254	     -1.65945942	     -7.23062237	     -3.15998911	     -6.14589881	     -0.47657343	      3.08878189
      1.02133333	     -0.28107365	     -1.91273140	      1.85248703	     -0.08442013	      1.01937613	      0.32607755	    -10.32457253	      6.19002914	     -2.57220504	    -20.93227277	      9.66090340	     -4.33759929	      6.21204571	     17.37732223	      0.65317467	      2.26109051	      1.98531832	     -2.18752086	     -7.87812679	     -1.77902556	     -6.30416938	     -0.74953708	      3.03181092
      1.02550000	     -0.19338728	     -1.68742253	      1.85969773	     -0.07864216	      1.01928435	      0.32547073	    -10.05893219	      5.85510585	     -2.92789993	    -22.29178049	      9.43105512	     -4.07720324	      6.35375019	     17.35526816	      0.95131175	      2.39637985	      1.20806199	     -2.44687314	     -8.05435820	     -1.71973738	     -6.37663946	     -1.02640310	      2.99809213
      1.02966667	     -0.04707885	     -1.45877686	      1.85632047	     -0.07286134	      1.01934025	      0.32487911	     -9.84523981	      5.51574375	     -3.24014999	    -23.64180401	      8.97917356	     -3.95412805	      6.86314625	     17.22335467	      1.24734521	      2.68156795	      0.51732916	     -2.83274276	     -8.60399892	     -1.56365907	     -6.52630788	     -1.31850277	      2.93596497
      1.03383333	      0.04852210	     -1.22263969	      1.83829935	     -0.06708671	      1.01936149	      0.32426226	     -9.52835839	      5.14477295	     -3.58124534	    -25.07947431	      8.53457803	     -3.79510571	      7.11949284	     17.17024528	      1.54661731	      2.78667170	     -0.22477807	     -3.17980127	     -8.87258443	     -1.51274121	     -6.60576579	     -1.59220340	      2.87098683
      1.03800000	      0.18179014	     -0.97741412	      1.83542952	     -0.06132952	      1.01948248	      0.32360082	     -9.22886477	      4.75109400	     -3.96457491	    -26.53770255	      7.96836606	     -3.63297405	      7.49076885	     17.06225688	      1.85852729	      2.97014415	     -0.94520325	     -3.50666018	     -9.26120111	     -1.46120351	     -6.74001509	     -1.88891330	      2.79030153
      1.04216667	      0.31406041	     -0.73224331	      1.82145696	     -0.05555543	      1.01966677	      0.32292781	     -8.91245899	      4.34440543	     -4.33534173	    -27.98255676	      7.10656718	     -3.63849764	     11.58512786	     16.95071546	      2.16539980	      3.10707606	     -1.67039782	     -3.73840381	     -9.57954486	     -1.13515255	     -6.85771880	     -2.16157463	      2.75771910
